<svg id="Layer_1" data-name="Layer 1" xmlns="http://www.w3.org/2000/svg" viewBox="0 0 188 173"><defs><style>.cls-1{fill:none;stroke:#1f030e;stroke-linecap:round;stroke-linejoin:round;stroke-width:5px;}</style></defs><path class="cls-1" d="M150.44,56.05H38.17a8.88,8.88,0,0,0-8.87,8.88v65.16A8.87,8.87,0,0,0,38.17,139H150.44a8.87,8.87,0,0,0,8.86-8.88V64.93A8.87,8.87,0,0,0,150.44,56.05Z"/><path class="cls-1" d="M58.85,82.7V56.05"/><path class="cls-1" d="M58.85,139v-14.8"/><path class="cls-1" d="M129.76,56.05V139"/><path class="cls-1" d="M79.53,56.05V44.2a5.91,5.91,0,0,1,5.91-5.92h17.73a5.91,5.91,0,0,1,5.9,5.92V56.05"/><path class="cls-1" d="M79.09,101.49,51.14,90.84l-6.63,17.5L72.46,119Z"/><path class="cls-1" d="M107.92,94.25,82.75,86.64l19.17-18.06Z"/><path class="cls-1" d="M97.26,127.13a8.89,8.89,0,1,0-8.87-8.89A8.88,8.88,0,0,0,97.26,127.13Z"/></svg>