<svg id="Layer_1" data-name="Layer 1" xmlns="http://www.w3.org/2000/svg" viewBox="0 0 188 173"><defs><style>.cls-1{fill:none;stroke:#1f030e;stroke-linejoin:round;stroke-width:5px;}</style></defs><path class="cls-1" d="M95.3,95.61a6.88,6.88,0,1,0-6.87-6.88A6.88,6.88,0,0,0,95.3,95.61Z"/><path class="cls-1" d="M99.89,45.19V39.07c0-1.67-2.07-3-4.59-3s-4.58,1.38-4.58,3v6.12"/><path class="cls-1" d="M67.8,54.7l-4.33-4.31c-1.19-1.21-3.6-.71-5.38,1.08s-2.3,4.19-1.08,5.38l4.31,4.33"/><path class="cls-1" d="M51.76,84.15H45.64c-1.67,0-3,2.06-3,4.58s1.38,4.58,3,4.58h6.12"/><path class="cls-1" d="M61.27,116.23,57,120.56c-1.21,1.19-.71,3.6,1.08,5.39s4.19,2.29,5.38,1.07l4.34-4.3"/><path class="cls-1" d="M122.8,122.76l4.33,4.31c1.19,1.22,3.6.71,5.39-1.08s2.29-4.19,1.08-5.38l-4.27-4.38"/><path class="cls-1" d="M138.84,93.31H145c1.68,0,3-2.06,3-4.58s-1.37-4.58-3-4.58h-6.12"/><path class="cls-1" d="M129.33,61.23l4.31-4.33c1.22-1.19.71-3.6-1.08-5.39s-4.19-2.29-5.38-1.07L122.8,54.7"/><path class="cls-1" d="M95.3,58.94V72.69"/><path class="cls-1" d="M74.24,67.67,84,77.39"/><path class="cls-1" d="M65.51,88.73H79.26"/><path class="cls-1" d="M125.09,88.73H111.34"/><path class="cls-1" d="M116.36,67.67l-9.71,9.72"/><path class="cls-1" d="M111.34,143.73v-55a16,16,0,0,0-32.08,0v55"/><path class="cls-1" d="M79.26,113.94a29.79,29.79,0,1,1,32.08,0"/><path class="cls-1" d="M79.26,124.25a39,39,0,1,1,32.08,0"/></svg>